<?xml version="1.0" encoding="iso-8859-1"?>
<!-- Generator: Adobe Illustrator 19.0.0, SVG Export Plug-In . SVG Version: 6.00 Build 0)  -->
<svg version="1.1" id="Layer_1" xmlns="http://www.w3.org/2000/svg" xmlns:xlink="http://www.w3.org/1999/xlink" x="0px" y="0px"
	 viewBox="0 0 511.999 511.999" style="enable-background:new 0 0 511.999 511.999;" xml:space="preserve">
<path style="fill:#666666;" d="M279.97,63.235c5.818-24.848,28.105-43.348,54.726-43.348c43.902,0,79.496,35.594,79.496,79.503
	v168.597c0,21.436,17.383,38.818,38.818,38.818h10.745c0,0-53.387,35.942-107.545,12.112l-68.627-40.334"/>
<path style="fill:#4D4D4D;" d="M393.62,318.917l-68.627-40.334L317.38,63.235c4.518-19.297,18.969-34.758,37.668-40.706
	c-6.497-1.717-13.316-2.641-20.353-2.641c-26.621,0-48.908,18.499-54.726,43.348l7.612,215.348l68.627,40.334
	c20.614,9.07,41.112,9.477,58.6,6.507C407.84,324.14,400.737,322.048,393.62,318.917z"/>
<circle style="fill:#EA8249;" cx="88.818" cy="333.397" r="81.237"/>
<path style="fill:#D36F3D;" d="M54.779,333.392c0-44.866,15.24-81.237,34.04-81.237c-44.866,0-81.237,36.372-81.237,81.237
	s36.372,81.237,81.237,81.237C70.019,414.629,54.779,378.258,54.779,333.392z"/>
<path style="fill:#90BC42;" d="M298.518,325.709H196.366c-36.997,0-66.989,29.992-66.989,66.989v98.331h236.13v-98.331
	C365.507,355.701,335.516,325.709,298.518,325.709z"/>
<path style="fill:#E0B394;" d="M295.236,288.339v61.021c0,26.396-21.401,47.797-47.797,47.797
	c-26.403,0-47.797-21.401-47.797-47.797v-61.021H295.236z"/>
<path style="fill:#83A538;" d="M237.641,325.709h-41.275c-36.997,0-66.989,29.992-66.989,66.989v98.331h41.275v-98.331
	C170.653,355.701,200.644,325.709,237.641,325.709z"/>
<g>
	<path style="fill:#E0B394;" d="M133.256,234.147c-13.431-0.596-24.122-11.677-24.122-25.249c0-13.951,11.308-25.27,25.27-25.27
		c1.256,0,2.491,0.087,3.704,0.271"/>
	<path style="fill:#E0B394;" d="M361.609,234.147c13.431-0.596,24.133-11.677,24.133-25.249c0-13.951-11.319-25.27-25.281-25.27
		c-1.257,0-2.502,0.097-3.704,0.271"/>
</g>
<path style="fill:#F7CBA4;" d="M210.88,343.378l-44.463-32.304c-23.496-17.071-36.207-45.3-33.413-74.209l7.712-79.805
	c5.312-54.965,51.501-96.906,106.722-96.906l0,0c55.221,0,101.41,41.941,106.722,96.906l7.712,79.805
	c2.794,28.909-9.916,57.137-33.413,74.209l-44.463,32.304C262.197,359.216,232.679,359.216,210.88,343.378z"/>
<path style="fill:#E0B394;" d="M160.673,252.593c-0.747,12.641,3.369,25.075,11.514,34.77l46.471,57.104
	c2.426,2.892,5.178,5.318,8.156,7.257c-5.589-1.95-10.962-4.744-15.933-8.351l-44.464-32.3
	c-23.494-17.071-36.199-45.298-33.405-74.208l7.701-79.808c5.264-54.429,50.605-96.088,105.121-96.878
	c-33.578,0.812-71.6,32.462-73.583,66.171L160.673,252.593z"/>
<path style="fill:#666666;" d="M342.562,117.864H152.315c17.981-34.51,54.05-57.711,95.124-57.711
	c27.61,0,52.967,10.485,72.074,27.848C328.827,96.461,336.669,106.556,342.562,117.864z"/>
<path style="fill:#4D4D4D;" d="M152.315,117.863h47.659c8.972-34.51,26.97-57.711,47.464-57.711
	C206.365,60.153,170.295,83.354,152.315,117.863z"/>
<polygon style="fill:#90BC42;" points="353.068,117.864 362.611,163.714 132.265,163.714 141.808,117.864 152.315,117.864 
	342.562,117.864 "/>
<polygon style="fill:#83A538;" points="152.315,117.863 141.808,117.863 132.265,163.714 197.255,163.714 206.798,117.863 "/>
<g>
	<rect x="320.475" y="411.905" style="fill:#71C5F4;" width="44.153" height="79.125"/>
	<rect x="427.751" y="411.905" style="fill:#71C5F4;" width="44.153" height="79.125"/>
</g>
<path d="M154.624,331.044c-20.556,12.479-32.829,34.269-32.829,58.286v64.441c0,4.486,3.637,8.124,8.124,8.124
	c4.486,0,8.124-3.637,8.124-8.124V389.33c0-18.292,9.35-34.889,25.012-44.398c3.835-2.329,5.056-7.325,2.729-11.16
	C163.456,329.937,158.459,328.715,154.624,331.044z"/>
<path d="M293.929,483.446H138.043v-2.596c0-4.486-3.637-8.124-8.124-8.124s-8.124,3.637-8.124,8.124v10.72
	c0,4.486,3.637,8.124,8.124,8.124h164.01c4.486,0,8.124-3.637,8.124-8.124C302.052,487.083,298.415,483.446,293.929,483.446z"/>
<path d="M284.873,364.533c-6.044,15.212-20.525,25.042-36.893,25.042c-16.36,0-30.838-9.83-36.882-25.042
	c-1.656-4.17-6.379-6.208-10.549-4.55c-4.17,1.657-6.207,6.38-4.55,10.549c8.518,21.438,28.922,35.291,51.981,35.291
	c23.067,0,43.475-13.853,51.992-35.291c1.656-4.169-0.381-8.892-4.55-10.549C291.253,358.325,286.531,360.364,284.873,364.533z"/>
<path d="M114.659,362.675c-5.595-1.649-11.346-2.728-17.176-3.255v-50.965c8.672-0.779,17.125-2.801,25.217-6.057
	c4.163-1.675,6.178-6.407,4.504-10.568c-1.675-4.163-6.407-6.178-10.568-4.504c-6.155,2.477-12.571,4.068-19.153,4.793v-30.851
	c4.332,0.479,8.602,1.338,12.766,2.577c4.304,1.281,8.825-1.17,10.104-5.469c1.279-4.3-1.169-8.823-5.469-10.104
	c-8.253-2.456-16.84-3.701-25.524-3.701C40.087,244.571,0,284.658,0,333.933s40.087,89.361,89.361,89.361
	c6.059,0,12.116-0.611,18.002-1.815c4.395-0.9,7.229-5.193,6.329-9.588c-0.9-4.396-5.192-7.227-9.588-6.329
	c-2.18,0.446-4.392,0.779-6.619,1.025V375.74c4.269,0.471,8.479,1.312,12.583,2.521c4.302,1.272,8.82-1.193,10.089-5.496
	C121.425,368.461,118.963,363.944,114.659,362.675z M81.236,292.122c-13.705-1.505-26.552-6.81-37.324-15.398
	c10.49-8.351,23.312-13.885,37.324-15.442V292.122z M32.327,288.261c13.926,11.593,30.849,18.573,48.909,20.189v50.968
	c-18.065,1.616-34.986,8.597-48.904,20.192c-10.053-12.524-16.086-28.406-16.086-45.678
	C16.246,316.664,22.277,300.785,32.327,288.261z M81.236,375.747v30.837c-14.009-1.557-26.828-7.088-37.317-15.437
	C54.684,382.557,67.528,377.252,81.236,375.747z"/>
<path d="M503.875,443.884h-23.303v-31.439c0-4.486-3.637-8.124-8.124-8.124h-44.153c-4.486,0-8.124,3.637-8.124,8.124v31.439H373.3
	v-31.439c0-4.486-3.637-8.124-8.124-8.124h-44.154c-4.486,0-8.124,3.637-8.124,8.124v31.439h-23.302
	c-4.486,0-8.124,3.637-8.124,8.124c0,4.486,3.637,8.124,8.124,8.124h23.302v31.439c0,4.486,3.637,8.124,8.124,8.124h44.154
	c4.486,0,8.124-3.637,8.124-8.124v-31.439h46.872v31.439c0,4.486,3.637,8.124,8.124,8.124h44.153c4.486,0,8.124-3.637,8.124-8.124
	v-31.439h23.303c4.486,0,8.124-3.637,8.124-8.124C511.999,447.521,508.362,443.884,503.875,443.884z M357.052,483.446h-27.907
	v-62.878h27.907V483.446z M464.324,483.446h-27.906v-62.878h27.906V483.446z"/>
<path d="M199.762,215.061c-4.486,0-8.124,3.637-8.124,8.124v12.994c0,4.486,3.637,8.124,8.124,8.124s8.124-3.637,8.124-8.124
	v-12.994C207.885,218.698,204.248,215.061,199.762,215.061z"/>
<path d="M271.882,197.402c-3.173,3.173-3.173,8.317,0,11.488c3.173,3.173,8.317,3.173,11.488,0c7.074-7.073,18.584-7.073,25.658,0
	c1.586,1.586,3.665,2.38,5.744,2.38c2.079,0,4.158-0.793,5.744-2.38c3.173-3.173,3.173-8.317,0-11.488
	C307.11,183.992,285.29,183.992,271.882,197.402z"/>
<path d="M212.591,208.891c1.586,1.586,3.665,2.38,5.744,2.38s4.158-0.793,5.744-2.38c3.173-3.173,3.173-8.317,0-11.488
	c-13.407-13.408-35.226-13.41-48.635,0c-3.173,3.173-3.173,8.317,0,11.488c3.173,3.173,8.317,3.173,11.488,0
	C194.007,201.818,205.515,201.817,212.591,208.891z"/>
<path d="M296.2,215.061c-4.486,0-8.124,3.637-8.124,8.124v12.994c0,4.486,3.637,8.124,8.124,8.124c4.486,0,8.124-3.637,8.124-8.124
	v-12.994C304.324,218.698,300.686,215.061,296.2,215.061z"/>
<path d="M273.581,279.338c-14.116,14.116-37.084,14.117-51.202,0c-3.173-3.174-8.317-3.173-11.488,0
	c-3.173,3.173-3.173,8.317,0,11.488c10.225,10.225,23.657,15.339,37.09,15.339c13.432,0,26.864-5.113,37.09-15.339
	c3.173-3.173,3.173-8.317,0-11.488C281.898,276.165,276.754,276.165,273.581,279.338z"/>
<path d="M239.487,261.794h16.986c4.486,0,8.124-3.637,8.124-8.124s-3.637-8.124-8.124-8.124h-0.369v-16.789
	c0-4.486-3.637-8.124-8.124-8.124s-8.124,3.637-8.124,8.124v16.789h-0.369c-4.486,0-8.124,3.637-8.124,8.124
	S235,261.794,239.487,261.794z"/>
<path d="M125.148,241.186c-1.355,30.046,12.561,59.222,37.038,77.007l44.463,32.299c12.362,8.983,26.845,13.473,41.332,13.472
	c14.484-0.001,28.971-4.492,41.33-13.472l44.465-32.3c24.476-17.784,38.392-46.962,37.037-77.009
	c13.734-4.182,23.595-16.911,23.595-31.94c0-17.182-13.05-31.371-29.762-33.191l-0.364-3.76c2.018-0.283,3.874-1.308,5.179-2.91
	c1.542-1.897,2.149-4.388,1.65-6.782l-9.549-45.851c-0.784-3.767-4.105-6.468-7.953-6.468h-5.702
	c-5.97-10.344-13.484-19.664-22.39-27.752c-10.524-9.563-22.587-16.996-35.571-22.067c6.736-19.028,24.657-31.909,45.291-31.909
	c39.355,0,71.372,32.021,71.372,71.379v168.597c0,19.676,12.168,36.562,29.374,43.531c-19.213,6.991-47.63,12.427-75.959-0.038
	c-4.107-1.808-8.9,0.056-10.707,4.164c-1.807,4.107,0.057,8.9,4.164,10.707c14.739,6.485,29.328,8.914,42.929,8.913
	c39.547-0.003,70.689-20.554,72.424-21.722c2.964-1.995,4.276-5.693,3.233-9.111c-1.043-3.417-4.197-5.753-7.77-5.753h-10.745
	c-16.926,0-30.695-13.769-30.695-30.695V99.932c0-48.318-39.306-87.627-87.619-87.627c-27.829,0-51.969,17.519-60.812,43.324
	c-8.594-2.02-17.461-3.059-26.444-3.059c-41.496,0-79.327,21.991-99.918,57.711h-5.712c-3.848,0-7.168,2.7-7.953,6.468
	l-9.549,45.851c-0.498,2.394,0.107,4.885,1.65,6.782c1.303,1.603,3.16,2.629,5.179,2.91l-0.363,3.757
	c-16.711,1.816-29.762,16.007-29.762,33.192C101.553,224.274,111.414,237.006,125.148,241.186z M324.227,305.047l-44.465,32.3
	c-19.01,13.814-44.554,13.813-63.564,0l-44.463-32.299c-21.076-15.314-32.611-40.931-30.104-66.854l6.363-65.814h199.974
	l6.363,65.814C356.837,264.117,345.302,289.734,324.227,305.047z M378.161,209.243c0,6.465-3.558,12.091-8.854,15.014l-3.029-31.322
	C373.164,195.164,378.161,201.628,378.161,209.243z M328.588,110.281h-72.483V69.168c21.717,1.776,42.238,10.62,58.489,25.388
	C319.838,99.319,324.51,104.584,328.588,110.281z M239.857,69.16v41.121h-72.515C184.235,86.591,210.651,71.531,239.857,69.16z
	 M148.958,126.528h198.045l6.165,29.604H142.792L148.958,126.528z M129.683,192.932l-3.029,31.327
	c-5.296-2.921-8.854-8.549-8.854-15.017C117.801,201.625,122.797,195.16,129.683,192.932z"/>
<path d="M330.173,333.772c-2.328,3.835-1.107,8.831,2.729,11.16c15.661,9.508,25.012,26.105,25.012,44.398
	c0,4.486,3.637,8.124,8.124,8.124c4.486,0,8.124-3.637,8.124-8.124c0-24.017-12.272-45.807-32.829-58.286
	C337.499,328.716,332.502,329.937,330.173,333.772z"/>
<g>
</g>
<g>
</g>
<g>
</g>
<g>
</g>
<g>
</g>
<g>
</g>
<g>
</g>
<g>
</g>
<g>
</g>
<g>
</g>
<g>
</g>
<g>
</g>
<g>
</g>
<g>
</g>
<g>
</g>
</svg>
