<?xml version="1.0" encoding="iso-8859-1"?>
<!-- Generator: Adobe Illustrator 19.0.0, SVG Export Plug-In . SVG Version: 6.00 Build 0)  -->
<svg version="1.1" id="Layer_1" xmlns="http://www.w3.org/2000/svg" xmlns:xlink="http://www.w3.org/1999/xlink" x="0px" y="0px"
	 viewBox="0 0 512.002 512.002" style="enable-background:new 0 0 512.002 512.002;" xml:space="preserve">
<polyline style="fill:#FCE8CA;" points="288.068,83.598 489.471,83.598 489.471,353.654 282.608,353.654 "/>
<path style="fill:#E6E6E6;" d="M366.358,402.068v101.033H123.736V402.068c0-27.011,15.559-50.394,38.196-61.657
	c9.226-4.596,19.621-7.178,30.628-7.178h104.962c11.007,0,21.402,2.582,30.628,7.178
	C350.799,351.673,366.358,375.056,366.358,402.068z"/>
<path style="fill:#CCCCCC;" d="M234.975,333.234h-42.41c-38.014,0-68.831,30.816-68.831,68.831V503.1h42.41V402.065
	C166.145,364.051,196.961,333.234,234.975,333.234z"/>
<g>
	<path style="fill:#F7CBA4;" d="M328.15,340.409l-83.104,81.623l-83.115-81.623c9.226-4.596,19.621-7.179,30.628-7.179h104.962
		C308.528,333.231,318.923,335.813,328.15,340.409z"/>
	<path style="fill:#F7CBA4;" d="M207.477,351.39l-45.685-33.193c-24.142-17.54-37.202-46.546-34.332-76.249l7.924-82
		c5.458-56.476,52.917-99.571,109.656-99.571l0,0c56.739,0,104.199,43.094,109.656,99.571l7.924,82
		c2.87,29.703-10.189,58.708-34.332,76.249l-45.685,33.193C260.205,367.662,229.875,367.662,207.477,351.39z"/>
</g>
<path style="fill:#E0B394;" d="M155.89,258.108c-0.768,12.988,3.461,25.765,11.831,35.726l47.749,58.675
	c2.493,2.972,5.32,5.465,8.38,7.457c-5.743-2.003-11.263-4.875-16.371-8.581l-45.686-33.188
	c-24.14-17.54-37.195-46.543-34.323-76.248l7.913-82.002c5.409-55.926,51.997-98.729,108.011-99.542
	c-34.501,0.835-73.569,33.355-75.606,67.99L155.89,258.108z"/>
<path style="fill:#666666;" d="M425.723,255.225c0,0-8.169,94.467-97.427,62.971c24.14-17.54,37.195-46.543,34.323-76.248
	l-7.924-82.002c-43.928,19.499-76.259-21.714-76.259-21.714s-37.072,53.689-115.947,61.179c-9.683,0.924-20,1.146-30.962,0.49
	l-4.062,42.047c-2.871,29.705,10.183,58.708,34.334,76.248c-89.258,31.496-97.427-62.971-97.427-62.971
	c1.091,4.218,3.55,7.802,6.811,10.328c3.272,2.538,7.357,4.007,11.719,4.007c9.894,0,18.152-7.546,19.054-17.395l8.269-90.26
	c3.194-34.846,19.41-65.608,43.561-87.656c0.289-0.267,0.579-0.523,0.868-0.768c0.801,2.037,6.744,3.706,16.015,5.031
	c43.616,6.21,160.977,4.53,164.772-5.031c24.641,22.081,41.201,53.165,44.429,88.424l8.269,90.26
	c0.456,4.93,2.738,9.271,6.155,12.387c3.417,3.116,7.946,5.008,12.899,5.008C415.918,269.56,423.53,263.662,425.723,255.225z"/>
<path style="fill:#4D4D4D;" d="M162.489,199.411c-9.683,0.924-20,1.146-30.962,0.49l-4.062,42.047
	c-2.871,29.705,10.183,58.708,34.334,76.248c-89.258,31.496-97.427-62.971-97.427-62.971c1.091,4.218,3.55,7.802,6.811,10.328
	c3.272,2.538,7.357,4.007,11.719,4.007c9.894,0,18.152-7.546,19.054-17.395l8.269-90.26c3.194-34.846,19.41-65.608,43.561-87.656
	c0.289-0.267,0.579-0.523,0.868-0.768c0.801,2.037,6.744,3.706,16.015,5.031l22.426,21.747
	C193.095,100.259,142.801,134.148,162.489,199.411z"/>
<path style="fill:#E6E6E6;" d="M353.235,28.507c-5.932,14.991-11.864,29.983-17.796,44.974
	c-4.596,11.597-9.182,23.194-13.778,34.791c-39.465-15.626-82.514-18.72-123.392-9.282c-10.106,2.315-20.078,5.42-29.838,9.282
	c-4.596-11.597-9.182-23.194-13.778-34.791c-5.932-14.991-11.875-29.983-17.807-44.974c16.483-6.533,33.411-11.508,50.572-14.947
	C242.621,2.531,300.216,7.517,353.235,28.507z"/>
<path style="fill:#CCCCCC;" d="M198.269,98.99c-10.106,2.315-20.078,5.42-29.838,9.282c-4.596-11.597-9.182-23.194-13.778-34.791
	c-5.932-14.991-11.875-29.983-17.807-44.974c16.483-6.533,33.411-11.508,50.572-14.947L198.269,98.99z"/>
<path style="fill:#E6F6FC;" d="M104.926,82.131c-10.123,27.06,3.605,57.198,30.665,67.32c4.003,1.497,8.081,2.476,12.151,2.965
	c23.396,2.799,46.542-10.573,55.169-33.631c10.123-27.06-3.605-57.198-30.665-67.32c-2.731-1.022-5.492-1.805-8.273-2.346
	C139.297,44.25,114.028,57.802,104.926,82.131z"/>
<g>
	<path style="fill:#C0E7F9;" d="M104.926,82.131c-10.123,27.06,3.605,57.198,30.665,67.32c4.003,1.497,8.081,2.476,12.151,2.965
		l16.231-103.297C139.297,44.25,114.028,57.802,104.926,82.131z"/>
	<circle style="fill:#C0E7F9;" cx="48.684" cy="452.237" r="27.267"/>
	<circle style="fill:#C0E7F9;" cx="131.04" cy="452.237" r="27.267"/>
</g>
<path d="M149.675,338.715c-21.121,12.823-33.731,35.211-33.731,59.889c0,4.61,3.736,8.347,8.347,8.347
	c4.611,0,8.347-3.737,8.347-8.347c0-18.794,9.608-35.848,25.701-45.619c3.94-2.393,5.195-7.526,2.804-11.467
	C158.749,337.577,153.617,336.323,149.675,338.715z"/>
<path d="M287.473,495.308h-33.523v-69.217l59.826-58.758c3.29-3.23,3.337-8.515,0.107-11.804c-3.229-3.29-8.515-3.336-11.803-0.106
	l-56.476,55.468l-56.476-55.468c-3.287-3.23-8.573-3.183-11.803,0.106c-3.23,3.289-3.183,8.574,0.107,11.804l59.826,58.758v69.217
	H124.293c-4.611,0-8.347,3.737-8.347,8.347c0,4.61,3.736,8.347,8.347,8.347h163.181c4.611,0,8.347-3.737,8.347-8.347
	C295.822,499.045,292.083,495.308,287.473,495.308z"/>
<path d="M341.519,338.715c-3.94-2.392-9.075-1.137-11.468,2.804c-2.392,3.941-1.136,9.075,2.804,11.467
	c16.1,9.775,25.712,26.829,25.712,45.619v96.704h-43.27c-4.611,0-8.347,3.737-8.347,8.347s3.736,8.347,8.347,8.347h51.617
	c4.611,0,8.347-3.737,8.347-8.347V398.604C375.261,373.93,362.647,351.542,341.519,338.715z"/>
<path d="M196.054,236.776c4.611,0,8.347-3.737,8.347-8.347v-13.35c0-4.61-3.736-8.347-8.347-8.347c-4.611,0-8.347,3.737-8.347,8.347
	v13.351C187.707,233.039,191.444,236.776,196.054,236.776z"/>
<path d="M281.961,194.827c3.521-3.521,8.204-5.46,13.183-5.46c4.98,0,9.661,1.939,13.182,5.46c1.63,1.63,3.766,2.445,5.903,2.445
	c2.136,0,4.273-0.815,5.902-2.445c3.261-3.26,3.261-8.545,0.001-11.805c-6.674-6.674-15.548-10.349-24.987-10.349
	c-9.438,0-18.312,3.675-24.986,10.349c-3.261,3.26-3.261,8.545-0.001,11.805C273.416,198.086,278.701,198.087,281.961,194.827z"/>
<path d="M295.144,206.732c-4.611,0-8.347,3.737-8.347,8.347v13.351c0,4.61,3.736,8.347,8.347,8.347c4.611,0,8.347-3.737,8.347-8.347
	v-13.351C303.491,210.468,299.754,206.732,295.144,206.732z"/>
<path d="M245.599,309.694c10.917,0,21.834-4.156,30.145-12.466c3.26-3.26,3.26-8.545,0-11.805c-3.26-3.259-8.544-3.26-11.805,0
	c-10.112,10.112-26.567,10.112-36.679,0c-3.261-3.26-8.545-3.26-11.805,0c-3.26,3.26-3.26,8.545,0,11.805
	C223.765,305.538,234.683,309.694,245.599,309.694z"/>
<path d="M236.87,260.314h17.454c4.611,0,8.347-3.737,8.347-8.347s-3.736-8.347-8.347-8.347h-0.38v-17.251
	c0-4.61-3.736-8.347-8.347-8.347s-8.347,3.737-8.347,8.347v17.251h-0.381c-4.611,0-8.347,3.737-8.347,8.347
	S232.26,260.314,236.87,260.314z"/>
<path d="M92.954,323.474c10.411,6.712,22.39,10.07,35.829,10.07c9.929,0,20.661-1.846,32.139-5.515l42.211,30.674
	c12.7,9.227,27.579,13.841,42.464,13.841c14.881,0,29.77-4.614,42.473-13.841l42.212-30.675c11.479,3.669,22.209,5.515,32.14,5.515
	c13.437-0.001,25.42-3.359,35.829-10.07c31.986-20.623,36.18-65.09,36.341-66.973c0.374-4.323-2.625-8.21-6.901-8.946
	c-4.274-0.733-8.402,1.928-9.492,6.127c-1.238,4.761-5.536,8.087-10.452,8.087c-2.691,0-5.274-1.004-7.274-2.829
	c-1.987-1.812-3.219-4.294-3.467-6.982l-8.269-90.26c-3.141-34.303-18.314-65.991-42.892-89.874
	c5.238-13.231,10.475-26.463,15.709-39.692c1.694-4.286-0.404-9.135-4.69-10.831c-71.748-28.399-150.779-28.4-222.535,0
	c-4.287,1.696-6.386,6.546-4.69,10.833c1.696,4.287,6.551,6.386,10.832,4.69c65.206-25.806,136.762-26.794,202.443-2.959
	c-6.414,16.212-12.831,32.422-19.251,48.638l-6.197,15.656c-28.283-9.933-58.74-13.946-88.609-11.625
	c-4.596,0.357-8.033,4.373-7.675,8.969c0.357,4.595,4.367,8.033,8.969,7.675c30.125-2.342,60.898,2.3,88.993,13.423
	c0.988,0.391,2.03,0.587,3.073,0.587c1.13,0,2.258-0.229,3.315-0.687c2.032-0.879,3.632-2.53,4.446-4.589l9.138-23.085
	c18.831,20.431,30.435,46.431,32.996,74.395l8.27,90.268c0.633,6.847,3.774,13.164,8.84,17.785
	c5.082,4.635,11.661,7.189,18.525,7.189c1.555,0,3.086-0.13,4.58-0.383c-4.161,11.145-11.256,23.741-23.189,31.404
	c-11.444,7.35-25.962,9.155-43.259,5.453c18.593-19.295,28.223-46.127,25.603-73.237l-7.924-82.002
	c-0.257-2.67-1.784-5.054-4.1-6.406c-2.318-1.352-5.144-1.509-7.595-0.421c-37.32,16.566-65.153-17.784-66.305-19.236
	c-1.637-2.087-4.126-3.262-6.822-3.191c-2.651,0.081-5.107,1.417-6.614,3.6c-0.441,0.638-45.164,63.75-139.539,58.079
	c-4.527-0.265-8.377,3.059-8.809,7.529l-4.061,42.047c-2.621,27.114,7.013,53.947,25.61,73.24
	c-17.297,3.701-31.812,1.895-43.255-5.455c-11.936-7.665-19.031-20.265-23.193-31.411c1.509,0.257,3.044,0.388,4.583,0.388
	c14.299,0,26.063-10.74,27.366-24.981l8.269-90.26c0.421-4.591-2.96-8.653-7.55-9.074c-4.609-0.417-8.654,2.959-9.074,7.55
	l-8.269,90.261c-0.512,5.591-5.128,9.808-10.741,9.808c-2.417,0-4.702-0.78-6.608-2.258c-1.884-1.46-3.249-3.527-3.841-5.818
	c-1.087-4.202-5.217-6.874-9.49-6.139c-4.279,0.732-7.282,4.622-6.907,8.947C56.774,258.384,60.968,302.852,92.954,323.474z
	 M136.328,243.306l3.303-34.184c1.612,0.037,3.204,0.055,4.789,0.055c47.42-0.002,82.041-16.144,103.315-30.356
	c15.133-10.108,25.638-20.512,31.737-27.384c4.092,3.859,9.853,8.605,16.991,12.742c16.696,9.675,34.3,12.279,51.504,7.724
	l6.9,71.403c2.574,26.642-9.274,52.963-30.922,68.692h-0.001l-45.684,33.198c-19.538,14.19-45.786,14.191-65.312,0.001l-45.689-33.2
	C145.604,296.271,133.753,269.95,136.328,243.306z"/>
<path d="M279.547,438.171c0,4.61,3.736,8.347,8.347,8.347h43.405c4.611,0,8.347-3.737,8.347-8.347c0-4.61-3.736-8.347-8.347-8.347
	h-43.405C283.283,429.823,279.547,433.561,279.547,438.171z"/>
<path d="M154.475,161.671c33.446,0,60.656-27.209,60.656-60.656S187.922,40.36,154.475,40.36S93.82,67.569,93.82,101.016
	S121.029,161.671,154.475,161.671z M154.475,57.054c24.24,0,43.961,19.721,43.961,43.961s-19.721,43.961-43.961,43.961
	s-43.961-19.721-43.961-43.961S130.235,57.054,154.475,57.054z"/>
<path d="M131.599,488.411c19.638,0,35.614-15.976,35.614-35.614v-74.011c0-4.61-3.736-8.347-8.347-8.347
	c-4.611,0-8.347,3.737-8.347,8.347v43.86c-5.487-3.455-11.972-5.463-18.92-5.463c-16.763,0-30.849,11.645-34.617,27.267H83.858
	c-3.767-15.622-17.854-27.267-34.617-27.267c-6.948,0-13.433,2.008-18.92,5.463v-43.86c0-4.61-3.736-8.347-8.347-8.347
	s-8.347,3.737-8.347,8.347v74.011c0,19.638,15.976,35.614,35.614,35.614c16.763,0,30.849-11.645,34.617-27.267h13.125
	C100.75,476.766,114.837,488.411,131.599,488.411z M131.599,433.877c10.433,0,18.92,8.487,18.92,18.92
	c0,10.433-8.487,18.92-18.92,18.92s-18.92-8.487-18.92-18.92C112.679,442.364,121.166,433.877,131.599,433.877z M49.241,471.717
	c-10.433,0-18.92-8.487-18.92-18.92c0-10.433,8.487-18.92,18.92-18.92s18.92,8.487,18.92,18.92
	C68.161,463.23,59.673,471.717,49.241,471.717z"/>
<path d="M490.029,150.726c-4.611,0-8.347,3.737-8.347,8.347v186.789H377.621c-4.611,0-8.347,3.737-8.347,8.347
	c0,4.61,3.736,8.347,8.347,8.347h112.408c4.611,0,8.347-3.737,8.347-8.347V159.074C498.376,154.464,494.64,150.726,490.029,150.726z
	"/>
<path d="M490.029,75.807H376.507c-4.611,0-8.347,3.737-8.347,8.347c0,4.61,3.736,8.347,8.347,8.347h105.175v38.748
	c0,4.61,3.736,8.347,8.347,8.347c4.611,0,8.347-3.737,8.347-8.347V84.154C498.376,79.545,494.64,75.807,490.029,75.807z"/>
<path d="M436.607,116.597c4.611,0,8.347-3.737,8.347-8.347c0-4.61-3.736-8.347-8.347-8.347h-33.388
	c-4.611,0-8.347,3.737-8.347,8.347v48.97c0,4.61,3.736,8.347,8.347,8.347h33.388c4.611,0,8.347-3.737,8.347-8.347
	c0-4.61-3.736-8.347-8.347-8.347h-25.041v-7.791h8.347c4.611,0,8.347-3.737,8.347-8.347c0-4.61-3.736-8.347-8.347-8.347h-8.347
	v-7.791C411.566,116.597,436.607,116.597,436.607,116.597z"/>
<path d="M443.285,178.922H429.93c-4.611,0-8.347,3.737-8.347,8.347v26.711v13.355c0,4.61,3.736,8.347,8.347,8.347
	c4.611,0,8.347-3.737,8.347-8.347v-5.008h5.008c11.966,0,21.702-9.736,21.702-21.702
	C464.987,188.658,455.251,178.922,443.285,178.922z M443.285,205.633h-5.008v-10.017h5.008c2.761,0,5.008,2.247,5.008,5.008
	C448.293,203.386,446.047,205.633,443.285,205.633z"/>
<path d="M457.753,315.814h-35.614c-4.611,0-8.347,3.737-8.347,8.347s3.736,8.347,8.347,8.347h35.614
	c4.611,0,8.347-3.737,8.347-8.347S462.364,315.814,457.753,315.814z"/>
<path d="M457.753,281.313h-12.242c-4.611,0-8.347,3.737-8.347,8.347s3.736,8.347,8.347,8.347h12.242
	c4.611,0,8.347-3.737,8.347-8.347S462.364,281.313,457.753,281.313z"/>
<circle cx="154.468" cy="101.013" r="8.347"/>
<g>
</g>
<g>
</g>
<g>
</g>
<g>
</g>
<g>
</g>
<g>
</g>
<g>
</g>
<g>
</g>
<g>
</g>
<g>
</g>
<g>
</g>
<g>
</g>
<g>
</g>
<g>
</g>
<g>
</g>
</svg>
